<svg xmlns="http://www.w3.org/2000/svg" width="172.7" height="35" viewBox="0 0 172.7 35"><rect class="svg__rect" x="0" y="0" width="45.480000000000004" height="35" fill="#C1D72F"/><rect class="svg__rect" x="43.480000000000004" y="0" width="129.21999999999997" height="35" fill="#5593C7"/><path class="svg__text" d="M13.95 18.00L13.95 18.00L13.95 17.52Q13.95 16.28 14.39 15.32Q14.83 14.37 15.64 13.86Q16.44 13.35 17.49 13.35Q18.53 13.35 19.34 13.85Q20.14 14.35 20.58 15.29Q21.02 16.23 21.03 17.48L21.03 17.48L21.03 17.96Q21.03 19.21 20.59 20.16Q20.16 21.10 19.35 21.61Q18.55 22.12 17.50 22.12L17.50 22.12Q16.46 22.12 15.65 21.61Q14.84 21.10 14.40 20.17Q13.95 19.23 13.95 18.00ZM15.43 17.46L15.43 17.96Q15.43 19.36 15.98 20.13Q16.53 20.90 17.50 20.90L17.50 20.90Q18.48 20.90 19.01 20.15Q19.54 19.40 19.54 17.96L19.54 17.96L19.54 17.51Q19.54 16.09 19.01 15.34Q18.47 14.58 17.49 14.58L17.49 14.58Q16.53 14.58 15.98 15.33Q15.44 16.09 15.43 17.46L15.43 17.46ZM25.06 19.42L25.06 19.42L26.54 19.42Q26.54 20.15 27.02 20.55Q27.50 20.95 28.40 20.95L28.40 20.95Q29.17 20.95 29.56 20.63Q29.95 20.32 29.95 19.80L29.95 19.80Q29.95 19.24 29.55 18.94Q29.16 18.63 28.13 18.32Q27.10 18.01 26.49 17.63L26.49 17.63Q25.32 16.90 25.32 15.72L25.32 15.72Q25.32 14.69 26.16 14.02Q27.00 13.35 28.34 13.35L28.34 13.35Q29.23 13.35 29.93 13.68Q30.63 14.01 31.03 14.61Q31.43 15.22 31.43 15.96L31.43 15.96L29.95 15.96Q29.95 15.29 29.53 14.91Q29.11 14.54 28.33 14.54L28.33 14.54Q27.61 14.54 27.20 14.85Q26.80 15.16 26.80 15.71L26.80 15.71Q26.80 16.18 27.24 16.50Q27.67 16.81 28.67 17.10Q29.66 17.40 30.27 17.78Q30.87 18.16 31.15 18.65Q31.43 19.13 31.43 19.79L31.43 19.79Q31.43 20.86 30.61 21.49Q29.80 22.12 28.40 22.12L28.40 22.12Q27.47 22.12 26.69 21.77Q25.92 21.43 25.49 20.83Q25.06 20.22 25.06 19.42Z" fill="#000000"/><path class="svg__text" d="M60.02 22L57.67 22L57.67 13.60L60.02 13.60L60.02 17.09L63.28 13.60L65.89 13.60L62.46 17.32L66.07 22L63.31 22L60.91 18.95L60.02 19.90L60.02 22ZM71.60 22L69.17 22L72.88 13.60L75.22 13.60L78.94 22L76.47 22L75.81 20.37L72.26 20.37L71.60 22ZM74.03 15.93L72.95 18.61L75.11 18.61L74.03 15.93ZM89.48 22L83.09 22L83.09 13.60L85.47 13.60L85.47 20.11L89.48 20.11L89.48 22ZM96.28 22L93.90 22L93.90 13.60L96.28 13.60L96.28 22ZM114.81 22L108.42 22L108.42 13.60L110.80 13.60L110.80 20.11L114.81 20.11L114.81 22ZM121.61 22L119.23 22L119.23 13.60L121.61 13.60L121.61 22ZM129.11 22L126.78 22L126.78 13.60L128.74 13.60L132.45 18.07L132.45 13.60L134.77 13.60L134.77 22L132.82 22L129.11 17.52L129.11 22ZM139.86 18.26L139.86 18.26L139.86 13.60L142.24 13.60L142.24 18.19Q142.24 20.20 143.84 20.20L143.84 20.20Q145.42 20.20 145.42 18.19L145.42 18.19L145.42 13.60L147.76 13.60L147.76 18.26Q147.76 20.13 146.72 21.15Q145.68 22.17 143.81 22.17L143.81 22.17Q141.94 22.17 140.90 21.15Q139.86 20.13 139.86 18.26ZM154.70 22L151.99 22L155.04 17.75L152.12 13.60L154.79 13.60L156.47 16.02L158.13 13.60L160.70 13.60L157.77 17.66L160.89 22L158.16 22L156.42 19.40L154.70 22Z" fill="#FFFFFF" x="56.480000000000004"/></svg>