<svg xmlns="http://www.w3.org/2000/svg" width="312.24" height="35" viewBox="0 0 312.24 35"><rect class="svg__rect" x="0" y="0" width="85.53" height="35" fill="#8FC965"/><rect class="svg__rect" x="83.53" y="0" width="228.71" height="35" fill="#C13B3A"/><path class="svg__text" d="M13.78 19.42L13.78 19.42L15.27 19.42Q15.27 20.15 15.75 20.55Q16.23 20.95 17.12 20.95L17.12 20.95Q17.90 20.95 18.29 20.63Q18.68 20.32 18.68 19.80L18.68 19.80Q18.68 19.24 18.28 18.94Q17.89 18.63 16.85 18.32Q15.82 18.01 15.21 17.63L15.21 17.63Q14.05 16.90 14.05 15.72L14.05 15.72Q14.05 14.69 14.89 14.02Q15.73 13.35 17.07 13.35L17.07 13.35Q17.96 13.35 18.66 13.68Q19.36 14.01 19.75 14.61Q20.15 15.22 20.15 15.96L20.15 15.96L18.68 15.96Q18.68 15.29 18.26 14.91Q17.84 14.54 17.06 14.54L17.06 14.54Q16.33 14.54 15.93 14.85Q15.53 15.16 15.53 15.71L15.53 15.71Q15.53 16.18 15.96 16.50Q16.40 16.81 17.39 17.10Q18.39 17.40 18.99 17.78Q19.60 18.16 19.88 18.65Q20.16 19.13 20.16 19.79L20.16 19.79Q20.16 20.86 19.34 21.49Q18.52 22.12 17.12 22.12L17.12 22.12Q16.20 22.12 15.42 21.77Q14.64 21.43 14.21 20.83Q13.78 20.22 13.78 19.42ZM26.13 14.66L23.49 14.66L23.49 13.47L30.26 13.47L30.26 14.66L27.60 14.66L27.60 22L26.13 22L26.13 14.66ZM34.80 22L33.25 22L36.48 13.47L37.81 13.47L41.04 22L39.49 22L38.79 20.01L35.49 20.01L34.80 22ZM37.14 15.28L35.90 18.82L38.38 18.82L37.14 15.28ZM46.67 14.66L44.04 14.66L44.04 13.47L50.80 13.47L50.80 14.66L48.14 14.66L48.14 22L46.67 22L46.67 14.66ZM54.42 19.16L54.42 19.16L54.42 13.47L55.90 13.47L55.90 19.18Q55.90 20.03 56.33 20.48Q56.77 20.93 57.61 20.93L57.61 20.93Q59.32 20.93 59.32 19.13L59.32 19.13L59.32 13.47L60.80 13.47L60.80 19.17Q60.80 20.53 59.93 21.32Q59.06 22.12 57.61 22.12L57.61 22.12Q56.15 22.12 55.29 21.33Q54.42 20.55 54.42 19.16ZM64.94 19.42L64.94 19.42L66.42 19.42Q66.42 20.15 66.90 20.55Q67.38 20.95 68.28 20.95L68.28 20.95Q69.05 20.95 69.44 20.63Q69.83 20.32 69.83 19.80L69.83 19.80Q69.83 19.24 69.43 18.94Q69.04 18.63 68.01 18.32Q66.97 18.01 66.37 17.63L66.37 17.63Q65.20 16.90 65.20 15.72L65.20 15.72Q65.20 14.69 66.04 14.02Q66.88 13.35 68.22 13.35L68.22 13.35Q69.11 13.35 69.81 13.68Q70.51 14.01 70.91 14.61Q71.31 15.22 71.31 15.96L71.31 15.96L69.83 15.96Q69.83 15.29 69.41 14.91Q68.99 14.54 68.21 14.54L68.21 14.54Q67.48 14.54 67.08 14.85Q66.68 15.16 66.68 15.71L66.68 15.71Q66.68 16.18 67.12 16.50Q67.55 16.81 68.55 17.10Q69.54 17.40 70.14 17.78Q70.75 18.16 71.03 18.65Q71.31 19.13 71.31 19.79L71.31 19.79Q71.31 20.86 70.49 21.49Q69.68 22.12 68.28 22.12L68.28 22.12Q67.35 22.12 66.57 21.77Q65.80 21.43 65.37 20.83Q64.94 20.22 64.94 19.42Z" fill="#000000"/><path class="svg__text" d="M97.65 18.26L97.65 18.26L97.65 13.60L100.03 13.60L100.03 18.19Q100.03 20.20 101.62 20.20L101.62 20.20Q103.20 20.20 103.20 18.19L103.20 18.19L103.20 13.60L105.55 13.60L105.55 18.26Q105.55 20.13 104.51 21.15Q103.47 22.17 101.60 22.17L101.60 22.17Q99.72 22.17 98.68 21.15Q97.65 20.13 97.65 18.26ZM112.96 22L110.63 22L110.63 13.60L112.59 13.60L116.30 18.07L116.30 13.60L118.62 13.60L118.62 22L116.67 22L112.96 17.52L112.96 22ZM127.76 22L123.79 22L123.79 13.60L127.76 13.60Q129.14 13.60 130.21 14.12Q131.27 14.63 131.86 15.58Q132.45 16.53 132.45 17.80L132.45 17.80Q132.45 19.07 131.86 20.02Q131.27 20.97 130.21 21.48Q129.14 22 127.76 22L127.76 22ZM126.17 15.50L126.17 20.10L127.67 20.10Q128.74 20.10 129.40 19.49Q130.05 18.88 130.05 17.80L130.05 17.80Q130.05 16.72 129.40 16.11Q128.74 15.50 127.67 15.50L127.67 15.50L126.17 15.50ZM143.92 22L137.18 22L137.18 13.60L143.77 13.60L143.77 15.44L139.54 15.44L139.54 16.85L143.27 16.85L143.27 18.63L139.54 18.63L139.54 20.17L143.92 20.17L143.92 22ZM151.11 22L148.73 22L148.73 13.60L152.57 13.60Q153.72 13.60 154.55 13.98Q155.39 14.35 155.85 15.06Q156.31 15.76 156.31 16.71L156.31 16.71Q156.31 17.62 155.88 18.30Q155.45 18.98 154.66 19.36L154.66 19.36L156.47 22L153.93 22L152.40 19.77L151.11 19.77L151.11 22ZM151.11 15.47L151.11 17.93L152.43 17.93Q153.16 17.93 153.53 17.61Q153.90 17.29 153.90 16.71L153.90 16.71Q153.90 16.12 153.53 15.79Q153.16 15.47 152.43 15.47L152.43 15.47L151.11 15.47ZM172.04 22L168.07 22L168.07 13.60L172.04 13.60Q173.42 13.60 174.49 14.12Q175.55 14.63 176.14 15.58Q176.73 16.53 176.73 17.80L176.73 17.80Q176.73 19.07 176.14 20.02Q175.55 20.97 174.49 21.48Q173.42 22 172.04 22L172.04 22ZM170.44 15.50L170.44 20.10L171.94 20.10Q173.02 20.10 173.68 19.49Q174.33 18.88 174.33 17.80L174.33 17.80Q174.33 16.72 173.68 16.11Q173.02 15.50 171.94 15.50L171.94 15.50L170.44 15.50ZM188.20 22L181.46 22L181.46 13.60L188.05 13.60L188.05 15.44L183.82 15.44L183.82 16.85L187.55 16.85L187.55 18.63L183.82 18.63L183.82 20.17L188.20 20.17L188.20 22ZM195.59 22L192.00 13.60L194.57 13.60L196.85 19.07L199.18 13.60L201.53 13.60L197.93 22L195.59 22ZM212.43 22L205.68 22L205.68 13.60L212.27 13.60L212.27 15.44L208.04 15.44L208.04 16.85L211.77 16.85L211.77 18.63L208.04 18.63L208.04 20.17L212.43 20.17L212.43 22ZM223.62 22L217.23 22L217.23 13.60L219.61 13.60L219.61 20.11L223.62 20.11L223.62 22ZM227.61 17.80L227.61 17.80Q227.61 16.55 228.21 15.55Q228.82 14.56 229.88 14.00Q230.94 13.43 232.27 13.43L232.27 13.43Q233.60 13.43 234.67 14.00Q235.73 14.56 236.34 15.55Q236.94 16.55 236.94 17.80L236.94 17.80Q236.94 19.05 236.34 20.04Q235.73 21.04 234.67 21.60Q233.61 22.17 232.27 22.17L232.27 22.17Q230.94 22.17 229.88 21.60Q228.82 21.04 228.21 20.04Q227.61 19.05 227.61 17.80ZM230.00 17.80L230.00 17.80Q230.00 18.51 230.31 19.05Q230.61 19.60 231.12 19.90Q231.64 20.20 232.27 20.20L232.27 20.20Q232.91 20.20 233.43 19.90Q233.94 19.60 234.24 19.05Q234.54 18.51 234.54 17.80L234.54 17.80Q234.54 17.09 234.24 16.54Q233.94 16 233.43 15.70Q232.91 15.40 232.27 15.40L232.27 15.40Q231.63 15.40 231.12 15.70Q230.61 16 230.31 16.54Q230.00 17.09 230.00 17.80ZM244.05 22L241.67 22L241.67 13.60L245.51 13.60Q246.65 13.60 247.49 13.98Q248.33 14.35 248.79 15.06Q249.25 15.76 249.25 16.71L249.25 16.71Q249.25 17.66 248.79 18.35Q248.33 19.05 247.49 19.42Q246.65 19.80 245.51 19.80L245.51 19.80L244.05 19.80L244.05 22ZM244.05 15.47L244.05 17.93L245.37 17.93Q246.10 17.93 246.47 17.61Q246.84 17.29 246.84 16.71L246.84 16.71Q246.84 16.12 246.47 15.80Q246.10 15.47 245.37 15.47L245.37 15.47L244.05 15.47ZM256.20 22L254.00 22L254.00 13.60L255.96 13.60L258.91 18.45L261.79 13.60L263.74 13.60L263.77 22L261.59 22L261.56 17.55L259.40 21.17L258.35 21.17L256.20 17.67L256.20 22ZM275.67 22L268.93 22L268.93 13.60L275.52 13.60L275.52 15.44L271.28 15.44L271.28 16.85L275.02 16.85L275.02 18.63L271.28 18.63L271.28 20.17L275.67 20.17L275.67 22ZM282.81 22L280.48 22L280.48 13.60L282.43 13.60L286.14 18.07L286.14 13.60L288.47 13.60L288.47 22L286.52 22L282.81 17.52L282.81 22ZM295.42 15.48L292.84 15.48L292.84 13.60L300.36 13.60L300.36 15.48L297.80 15.48L297.80 22L295.42 22L295.42 15.48Z" fill="#FFFFFF" x="96.53"/></svg>